<svg height="56" viewBox="0 0 56 56" width="56" xmlns="http://www.w3.org/2000/svg"><path d="m7.7148 49.5742h40.5704c4.8984 0 7.3594-2.4375 7.3594-7.2656v-28.6172c0-4.8281-2.461-7.2656-7.3594-7.2656h-40.5704c-4.875 0-7.3594 2.414-7.3594 7.2656v28.6172c0 4.8516 2.4844 7.2656 7.3594 7.2656zm31.5703-21.6328c-1.0547-.9375-2.25-1.4296-3.5156-1.4296-1.3125 0-2.461.4453-3.5391 1.4062l-10.5938 9.4687-4.3359-3.9375c-.9844-.8672-2.039-1.3359-3.1641-1.3359-1.0312 0-2.039.4453-3 1.3125l-7.0078 6.3047v-25.8516c0-2.4375 1.3125-3.6797 3.6563-3.6797h40.4296c2.3203 0 3.6561 1.2422 3.6561 3.6797v25.875zm-21.4688.2578c3.0235 0 5.5078-2.4843 5.5078-5.5312 0-3.0235-2.4843-5.5313-5.5078-5.5313-3.0468 0-5.5312 2.5078-5.5312 5.5313 0 3.0469 2.4844 5.5312 5.5312 5.5312z"/></svg>