<svg height="16" viewBox="0 0 16 16" width="16" xmlns="http://www.w3.org/2000/svg"><path d="m3.5 0c-1.657 0-3 1.567-3 3.5 0 1.655.985 3.042 2.308 3.406l-.497 8.096c-.034.549.389.998.939.998h.5c.55 0 .972-.449.939-.998l-.497-8.096c1.323-.365 2.308-1.751 2.308-3.406 0-1.933-1.343-3.5-3-3.5zm10.083 0-.833 5h-.625l-.417-5h-.417l-.417 5h-.625l-.833-5h-.417v6.5c0 .276.224.5.5.5h1.302l-.491 8.002c-.034.549.389.998.939.998h.5c.55 0 .972-.449.939-.998l-.491-8.002h1.302c.276 0 .5-.224.5-.5v-6.5h-.417z"/></svg>